<mxfile host="app.diagrams.net" modified="2023-03-30T09:19:56.012Z" agent="Mozilla/5.0 (Windows NT 10.0; Win64; x64) AppleWebKit/537.36 (KHTML, like Gecko) Chrome/111.0.0.0 Safari/537.36" version="21.1.1" etag="xgiIz2ALTxBZS1eDWTxL" type="github">
  <diagram name="第 1 页" id="aZilTmm_DH2yKtGxNfb4">
    <mxGraphModel>
      <root>
        <mxCell id="0" />
        <mxCell id="1" parent="0" />
      </root>
    </mxGraphModel>
  </diagram>
</mxfile>
